<svg id="visual" viewBox="0 0 960 540" width="960" height="540" xmlns="http://www.w3.org/2000/svg" xmlns:xlink="http://www.w3.org/1999/xlink" version="1.1"><rect x="0" y="0" width="960" height="540" fill="#fff"></rect><path d="M0 342L22.8 347.7C45.7 353.3 91.3 364.7 137 361C182.7 357.3 228.3 338.7 274 334C319.7 329.3 365.3 338.7 411.2 342C457 345.3 503 342.7 548.8 350.5C594.7 358.3 640.3 376.7 686 379.7C731.7 382.7 777.3 370.3 823 358.7C868.7 347 914.3 336 937.2 330.5L960 325L960 541L937.2 541C914.3 541 868.7 541 823 541C777.3 541 731.7 541 686 541C640.3 541 594.7 541 548.8 541C503 541 457 541 411.2 541C365.3 541 319.7 541 274 541C228.3 541 182.7 541 137 541C91.3 541 45.7 541 22.8 541L0 541Z" fill="#e1f4cb"></path><path d="M0 427L22.8 422.5C45.7 418 91.3 409 137 407C182.7 405 228.3 410 274 407.8C319.7 405.7 365.3 396.3 411.2 393C457 389.7 503 392.3 548.8 387.2C594.7 382 640.3 369 686 366.2C731.7 363.3 777.3 370.7 823 375.2C868.7 379.7 914.3 381.3 937.2 382.2L960 383L960 541L937.2 541C914.3 541 868.7 541 823 541C777.3 541 731.7 541 686 541C640.3 541 594.7 541 548.8 541C503 541 457 541 411.2 541C365.3 541 319.7 541 274 541C228.3 541 182.7 541 137 541C91.3 541 45.7 541 22.8 541L0 541Z" fill="#b5c6a4"></path><path d="M0 398L22.8 400.2C45.7 402.3 91.3 406.7 137 414C182.7 421.3 228.3 431.7 274 436.7C319.7 441.7 365.3 441.3 411.2 433.3C457 425.3 503 409.7 548.8 403.2C594.7 396.7 640.3 399.3 686 404.3C731.7 409.3 777.3 416.7 823 424C868.7 431.3 914.3 438.7 937.2 442.3L960 446L960 541L937.2 541C914.3 541 868.7 541 823 541C777.3 541 731.7 541 686 541C640.3 541 594.7 541 548.8 541C503 541 457 541 411.2 541C365.3 541 319.7 541 274 541C228.3 541 182.7 541 137 541C91.3 541 45.7 541 22.8 541L0 541Z" fill="#8b997e"></path><path d="M0 433L22.8 439.3C45.7 445.7 91.3 458.3 137 467.3C182.7 476.3 228.3 481.7 274 475.5C319.7 469.3 365.3 451.7 411.2 443.2C457 434.7 503 435.3 548.8 440.8C594.7 446.3 640.3 456.7 686 461.2C731.7 465.7 777.3 464.3 823 464.2C868.7 464 914.3 465 937.2 465.5L960 466L960 541L937.2 541C914.3 541 868.7 541 823 541C777.3 541 731.7 541 686 541C640.3 541 594.7 541 548.8 541C503 541 457 541 411.2 541C365.3 541 319.7 541 274 541C228.3 541 182.7 541 137 541C91.3 541 45.7 541 22.8 541L0 541Z" fill="#646f5a"></path><path d="M0 499L22.8 501.8C45.7 504.7 91.3 510.3 137 511.2C182.7 512 228.3 508 274 504.3C319.7 500.7 365.3 497.3 411.2 495.5C457 493.7 503 493.3 548.8 493.5C594.7 493.7 640.3 494.3 686 496.8C731.7 499.3 777.3 503.7 823 504.5C868.7 505.3 914.3 502.7 937.2 501.3L960 500L960 541L937.2 541C914.3 541 868.7 541 823 541C777.3 541 731.7 541 686 541C640.3 541 594.7 541 548.8 541C503 541 457 541 411.2 541C365.3 541 319.7 541 274 541C228.3 541 182.7 541 137 541C91.3 541 45.7 541 22.8 541L0 541Z" fill="#3f4739"></path></svg>