<svg id="visual" viewBox="0 0 960 540" width="960" height="540" xmlns="http://www.w3.org/2000/svg" xmlns:xlink="http://www.w3.org/1999/xlink" version="1.1"><rect x="0" y="0" width="960" height="540" fill="#fff"></rect><path d="M0 401L22.8 400.8C45.7 400.7 91.3 400.3 137 394C182.7 387.7 228.3 375.3 274 361.5C319.7 347.7 365.3 332.3 411.2 336.3C457 340.3 503 363.7 548.8 371.2C594.7 378.7 640.3 370.3 686 366.2C731.7 362 777.3 362 823 361.7C868.7 361.3 914.3 360.7 937.2 360.3L960 360L960 541L937.2 541C914.3 541 868.7 541 823 541C777.3 541 731.7 541 686 541C640.3 541 594.7 541 548.8 541C503 541 457 541 411.2 541C365.3 541 319.7 541 274 541C228.3 541 182.7 541 137 541C91.3 541 45.7 541 22.8 541L0 541Z" fill="#e1f4cb"></path><path d="M0 427L22.8 420.8C45.7 414.7 91.3 402.3 137 402.8C182.7 403.3 228.3 416.7 274 415.3C319.7 414 365.3 398 411.2 390.5C457 383 503 384 548.8 390C594.7 396 640.3 407 686 404.8C731.7 402.7 777.3 387.3 823 388.8C868.7 390.3 914.3 408.7 937.2 417.8L960 427L960 541L937.2 541C914.3 541 868.7 541 823 541C777.3 541 731.7 541 686 541C640.3 541 594.7 541 548.8 541C503 541 457 541 411.2 541C365.3 541 319.7 541 274 541C228.3 541 182.7 541 137 541C91.3 541 45.7 541 22.8 541L0 541Z" fill="#b5c6a4"></path><path d="M0 452L22.8 444.5C45.7 437 91.3 422 137 418.5C182.7 415 228.3 423 274 426.2C319.7 429.3 365.3 427.7 411.2 429.8C457 432 503 438 548.8 436C594.7 434 640.3 424 686 421.2C731.7 418.3 777.3 422.7 823 429.5C868.7 436.3 914.3 445.7 937.2 450.3L960 455L960 541L937.2 541C914.3 541 868.7 541 823 541C777.3 541 731.7 541 686 541C640.3 541 594.7 541 548.8 541C503 541 457 541 411.2 541C365.3 541 319.7 541 274 541C228.3 541 182.7 541 137 541C91.3 541 45.7 541 22.8 541L0 541Z" fill="#8b997e"></path><path d="M0 447L22.8 451.7C45.7 456.3 91.3 465.7 137 471C182.7 476.3 228.3 477.7 274 479.8C319.7 482 365.3 485 411.2 478.5C457 472 503 456 548.8 451.5C594.7 447 640.3 454 686 454.7C731.7 455.3 777.3 449.7 823 452.3C868.7 455 914.3 466 937.2 471.5L960 477L960 541L937.2 541C914.3 541 868.7 541 823 541C777.3 541 731.7 541 686 541C640.3 541 594.7 541 548.8 541C503 541 457 541 411.2 541C365.3 541 319.7 541 274 541C228.3 541 182.7 541 137 541C91.3 541 45.7 541 22.8 541L0 541Z" fill="#646f5a"></path><path d="M0 488L22.8 487.8C45.7 487.7 91.3 487.3 137 490.3C182.7 493.3 228.3 499.7 274 504.3C319.7 509 365.3 512 411.2 512.5C457 513 503 511 548.8 505.7C594.7 500.3 640.3 491.7 686 486.5C731.7 481.3 777.3 479.7 823 484.3C868.7 489 914.3 500 937.2 505.5L960 511L960 541L937.2 541C914.3 541 868.7 541 823 541C777.3 541 731.7 541 686 541C640.3 541 594.7 541 548.8 541C503 541 457 541 411.2 541C365.3 541 319.7 541 274 541C228.3 541 182.7 541 137 541C91.3 541 45.7 541 22.8 541L0 541Z" fill="#3f4739"></path></svg>