<svg id="visual" viewBox="0 0 960 540" width="960" height="540" xmlns="http://www.w3.org/2000/svg" xmlns:xlink="http://www.w3.org/1999/xlink" version="1.1"><rect x="0" y="0" width="960" height="540" fill="#fff"></rect><path d="M0 351L22.8 352.2C45.7 353.3 91.3 355.7 137 362.8C182.7 370 228.3 382 274 376C319.7 370 365.3 346 411.2 336.7C457 327.3 503 332.7 548.8 342.3C594.7 352 640.3 366 686 367.8C731.7 369.7 777.3 359.3 823 361.7C868.7 364 914.3 379 937.2 386.5L960 394L960 541L937.2 541C914.3 541 868.7 541 823 541C777.3 541 731.7 541 686 541C640.3 541 594.7 541 548.8 541C503 541 457 541 411.2 541C365.3 541 319.7 541 274 541C228.3 541 182.7 541 137 541C91.3 541 45.7 541 22.8 541L0 541Z" fill="#e1f4cb"></path><path d="M0 391L22.8 384.8C45.7 378.7 91.3 366.3 137 370.3C182.7 374.3 228.3 394.7 274 395.7C319.7 396.7 365.3 378.3 411.2 372.7C457 367 503 374 548.8 373C594.7 372 640.3 363 686 367.7C731.7 372.3 777.3 390.7 823 400C868.7 409.3 914.3 409.7 937.2 409.8L960 410L960 541L937.2 541C914.3 541 868.7 541 823 541C777.3 541 731.7 541 686 541C640.3 541 594.7 541 548.8 541C503 541 457 541 411.2 541C365.3 541 319.7 541 274 541C228.3 541 182.7 541 137 541C91.3 541 45.7 541 22.8 541L0 541Z" fill="#b5c6a4"></path><path d="M0 413L22.8 419.7C45.7 426.3 91.3 439.7 137 445.7C182.7 451.7 228.3 450.3 274 444C319.7 437.7 365.3 426.3 411.2 423.7C457 421 503 427 548.8 426.5C594.7 426 640.3 419 686 414.5C731.7 410 777.3 408 823 410C868.7 412 914.3 418 937.2 421L960 424L960 541L937.2 541C914.3 541 868.7 541 823 541C777.3 541 731.7 541 686 541C640.3 541 594.7 541 548.8 541C503 541 457 541 411.2 541C365.3 541 319.7 541 274 541C228.3 541 182.7 541 137 541C91.3 541 45.7 541 22.8 541L0 541Z" fill="#8b997e"></path><path d="M0 442L22.8 442C45.7 442 91.3 442 137 444C182.7 446 228.3 450 274 453C319.7 456 365.3 458 411.2 458.8C457 459.7 503 459.3 548.8 459.8C594.7 460.3 640.3 461.7 686 464C731.7 466.3 777.3 469.7 823 473.2C868.7 476.7 914.3 480.3 937.2 482.2L960 484L960 541L937.2 541C914.3 541 868.7 541 823 541C777.3 541 731.7 541 686 541C640.3 541 594.7 541 548.8 541C503 541 457 541 411.2 541C365.3 541 319.7 541 274 541C228.3 541 182.7 541 137 541C91.3 541 45.7 541 22.8 541L0 541Z" fill="#646f5a"></path><path d="M0 498L22.8 500.5C45.7 503 91.3 508 137 509C182.7 510 228.3 507 274 506.5C319.7 506 365.3 508 411.2 506.2C457 504.3 503 498.7 548.8 494.3C594.7 490 640.3 487 686 490.7C731.7 494.3 777.3 504.7 823 502.8C868.7 501 914.3 487 937.2 480L960 473L960 541L937.2 541C914.3 541 868.7 541 823 541C777.3 541 731.7 541 686 541C640.3 541 594.7 541 548.8 541C503 541 457 541 411.2 541C365.3 541 319.7 541 274 541C228.3 541 182.7 541 137 541C91.3 541 45.7 541 22.8 541L0 541Z" fill="#3f4739"></path></svg>