<svg id="visual" viewBox="0 0 960 540" width="960" height="540" xmlns="http://www.w3.org/2000/svg" xmlns:xlink="http://www.w3.org/1999/xlink" version="1.1"><rect x="0" y="0" width="960" height="540" fill="#fff"></rect><path d="M0 367L22.8 367.5C45.7 368 91.3 369 137 373.2C182.7 377.3 228.3 384.7 274 384C319.7 383.3 365.3 374.7 411.2 373.5C457 372.3 503 378.7 548.8 376.3C594.7 374 640.3 363 686 357.7C731.7 352.3 777.3 352.7 823 359C868.7 365.3 914.3 377.7 937.2 383.8L960 390L960 541L937.2 541C914.3 541 868.7 541 823 541C777.3 541 731.7 541 686 541C640.3 541 594.7 541 548.8 541C503 541 457 541 411.2 541C365.3 541 319.7 541 274 541C228.3 541 182.7 541 137 541C91.3 541 45.7 541 22.8 541L0 541Z" fill="#e1f4cb"></path><path d="M0 391L22.8 395.5C45.7 400 91.3 409 137 405.8C182.7 402.7 228.3 387.3 274 382.8C319.7 378.3 365.3 384.7 411.2 394.3C457 404 503 417 548.8 415.7C594.7 414.3 640.3 398.7 686 396.5C731.7 394.3 777.3 405.7 823 404.3C868.7 403 914.3 389 937.2 382L960 375L960 541L937.2 541C914.3 541 868.7 541 823 541C777.3 541 731.7 541 686 541C640.3 541 594.7 541 548.8 541C503 541 457 541 411.2 541C365.3 541 319.7 541 274 541C228.3 541 182.7 541 137 541C91.3 541 45.7 541 22.8 541L0 541Z" fill="#b5c6a4"></path><path d="M0 407L22.8 405.2C45.7 403.3 91.3 399.7 137 400.2C182.7 400.7 228.3 405.3 274 413.7C319.7 422 365.3 434 411.2 437.2C457 440.3 503 434.7 548.8 426.7C594.7 418.7 640.3 408.3 686 406.2C731.7 404 777.3 410 823 414.2C868.7 418.3 914.3 420.7 937.2 421.8L960 423L960 541L937.2 541C914.3 541 868.7 541 823 541C777.3 541 731.7 541 686 541C640.3 541 594.7 541 548.8 541C503 541 457 541 411.2 541C365.3 541 319.7 541 274 541C228.3 541 182.7 541 137 541C91.3 541 45.7 541 22.8 541L0 541Z" fill="#8b997e"></path><path d="M0 435L22.8 434.8C45.7 434.7 91.3 434.3 137 434.5C182.7 434.7 228.3 435.3 274 437.7C319.7 440 365.3 444 411.2 449.5C457 455 503 462 548.8 466.5C594.7 471 640.3 473 686 475.3C731.7 477.7 777.3 480.3 823 474.7C868.7 469 914.3 455 937.2 448L960 441L960 541L937.2 541C914.3 541 868.7 541 823 541C777.3 541 731.7 541 686 541C640.3 541 594.7 541 548.8 541C503 541 457 541 411.2 541C365.3 541 319.7 541 274 541C228.3 541 182.7 541 137 541C91.3 541 45.7 541 22.8 541L0 541Z" fill="#646f5a"></path><path d="M0 513L22.8 506.7C45.7 500.3 91.3 487.7 137 487.8C182.7 488 228.3 501 274 507.7C319.7 514.3 365.3 514.7 411.2 514.3C457 514 503 513 548.8 508.5C594.7 504 640.3 496 686 491.8C731.7 487.7 777.3 487.3 823 487.8C868.7 488.3 914.3 489.7 937.2 490.3L960 491L960 541L937.2 541C914.3 541 868.7 541 823 541C777.3 541 731.7 541 686 541C640.3 541 594.7 541 548.8 541C503 541 457 541 411.2 541C365.3 541 319.7 541 274 541C228.3 541 182.7 541 137 541C91.3 541 45.7 541 22.8 541L0 541Z" fill="#3f4739"></path></svg>