<svg id="visual" viewBox="0 0 960 540" width="960" height="540" xmlns="http://www.w3.org/2000/svg" xmlns:xlink="http://www.w3.org/1999/xlink" version="1.1"><rect x="0" y="0" width="960" height="540" fill="#fff"></rect><path d="M0 334L22.8 335.3C45.7 336.7 91.3 339.3 137 342C182.7 344.7 228.3 347.3 274 350C319.7 352.7 365.3 355.3 411.2 361.2C457 367 503 376 548.8 374.5C594.7 373 640.3 361 686 354.7C731.7 348.3 777.3 347.7 823 350.5C868.7 353.3 914.3 359.7 937.2 362.8L960 366L960 541L937.2 541C914.3 541 868.7 541 823 541C777.3 541 731.7 541 686 541C640.3 541 594.7 541 548.8 541C503 541 457 541 411.2 541C365.3 541 319.7 541 274 541C228.3 541 182.7 541 137 541C91.3 541 45.7 541 22.8 541L0 541Z" fill="#e1f4cb"></path><path d="M0 373L22.8 372.2C45.7 371.3 91.3 369.7 137 367C182.7 364.3 228.3 360.7 274 363.2C319.7 365.7 365.3 374.3 411.2 384C457 393.7 503 404.3 548.8 411.7C594.7 419 640.3 423 686 414.3C731.7 405.7 777.3 384.3 823 383.5C868.7 382.7 914.3 402.3 937.2 412.2L960 422L960 541L937.2 541C914.3 541 868.7 541 823 541C777.3 541 731.7 541 686 541C640.3 541 594.7 541 548.8 541C503 541 457 541 411.2 541C365.3 541 319.7 541 274 541C228.3 541 182.7 541 137 541C91.3 541 45.7 541 22.8 541L0 541Z" fill="#b5c6a4"></path><path d="M0 429L22.8 428.8C45.7 428.7 91.3 428.3 137 427.5C182.7 426.7 228.3 425.3 274 426.8C319.7 428.3 365.3 432.7 411.2 435.2C457 437.7 503 438.3 548.8 434.3C594.7 430.3 640.3 421.7 686 421.2C731.7 420.7 777.3 428.3 823 426.5C868.7 424.7 914.3 413.3 937.2 407.7L960 402L960 541L937.2 541C914.3 541 868.7 541 823 541C777.3 541 731.7 541 686 541C640.3 541 594.7 541 548.8 541C503 541 457 541 411.2 541C365.3 541 319.7 541 274 541C228.3 541 182.7 541 137 541C91.3 541 45.7 541 22.8 541L0 541Z" fill="#8b997e"></path><path d="M0 465L22.8 467C45.7 469 91.3 473 137 469.3C182.7 465.7 228.3 454.3 274 451.7C319.7 449 365.3 455 411.2 462C457 469 503 477 548.8 481.5C594.7 486 640.3 487 686 486.2C731.7 485.3 777.3 482.7 823 478.3C868.7 474 914.3 468 937.2 465L960 462L960 541L937.2 541C914.3 541 868.7 541 823 541C777.3 541 731.7 541 686 541C640.3 541 594.7 541 548.8 541C503 541 457 541 411.2 541C365.3 541 319.7 541 274 541C228.3 541 182.7 541 137 541C91.3 541 45.7 541 22.8 541L0 541Z" fill="#646f5a"></path><path d="M0 511L22.8 511.8C45.7 512.7 91.3 514.3 137 508.3C182.7 502.3 228.3 488.7 274 488C319.7 487.3 365.3 499.7 411.2 500.8C457 502 503 492 548.8 487C594.7 482 640.3 482 686 483C731.7 484 777.3 486 823 487.2C868.7 488.3 914.3 488.7 937.2 488.8L960 489L960 541L937.2 541C914.3 541 868.7 541 823 541C777.3 541 731.7 541 686 541C640.3 541 594.7 541 548.8 541C503 541 457 541 411.2 541C365.3 541 319.7 541 274 541C228.3 541 182.7 541 137 541C91.3 541 45.7 541 22.8 541L0 541Z" fill="#3f4739"></path></svg>