<svg width="351" height="102" viewBox="0 0 351 102" fill="none" xmlns="http://www.w3.org/2000/svg">
<path d="M68.6405 80.896V78.396H66.1405H30.6143L68.222 21.8647L68.6405 21.2356V20.48V6.656V4.156H66.1405H5.21252H2.71252V6.656V21.76V24.26H5.21252H40.4992L3.12698 80.7974L2.71252 81.4244V82.176V96V98.5H5.21252H66.1405H68.6405V96V80.896ZM94.7065 98.5H96.4872L97.0692 96.8172L102.375 81.476H134.398L139.704 96.8172L140.286 98.5H142.067H161.011H164.565L163.363 95.1551L131.235 5.6831L130.641 4.02799H128.883H108.019H106.26L105.666 5.6831L89.6016 50.4191L73.5376 95.1551L72.3365 98.5H75.8905H94.7065ZM172.387 26.4048L172.382 26.4134C168.221 33.7406 166.168 42.0247 166.168 51.2C166.168 60.3753 168.221 68.6594 172.382 75.9866L172.387 75.9967L172.393 76.0067C176.62 83.2921 182.353 89.028 189.565 93.1753L189.581 93.1844L189.597 93.1934C196.91 97.2559 205.056 99.268 213.98 99.268C224.486 99.268 233.735 96.6343 241.623 91.2851L241.628 91.2816C249.62 85.8323 255.192 78.2404 258.34 68.6172L259.412 65.34H255.964H235.356H233.782L233.102 66.7582C231.25 70.6153 228.676 73.4657 225.388 75.411C222.154 77.2889 218.336 78.268 213.852 78.268C209.056 78.268 204.857 77.1748 201.186 75.0402C197.604 72.8232 194.762 69.7288 192.66 65.6895C190.643 61.5685 189.6 56.7591 189.6 51.2C189.6 45.5443 190.648 40.7417 192.655 36.7187C194.76 32.6723 197.602 29.623 201.179 27.4917L201.186 27.4878L201.192 27.4838C204.864 25.2653 209.061 24.132 213.852 24.132C218.34 24.132 222.16 25.1125 225.395 26.9933L225.406 26.9995L225.417 27.0056C228.686 28.8632 231.252 31.6603 233.102 35.5138L233.782 36.932H235.356H255.964H259.422L258.337 33.6481C255.187 24.108 249.614 16.5635 241.628 11.1184C233.663 5.6876 224.414 3.004 213.98 3.004C205.048 3.004 196.896 5.06255 189.581 9.21562C182.352 13.2834 176.614 19.0299 172.387 26.4048ZM347.882 6.656V4.156H345.382H327.462H324.962V6.656V40.892H291.69V6.656V4.156H289.19H271.27H268.77V6.656V96V98.5H271.27H289.19H291.69V96V60.484H324.962V96V98.5H327.462H345.382H347.882V96V6.656ZM108.969 62.14L118.387 34.9119L127.804 62.14H108.969Z" stroke="white" stroke-width="5"/>
</svg>
