<svg width="341" height="92" viewBox="0 0 341 92" fill="none" xmlns="http://www.w3.org/2000/svg">
<path d="M20.9485 75.896L19.2833 74.7882L17.2159 77.896H20.9485V75.896ZM61.1405 75.896H63.1405V73.896H61.1405V75.896ZM61.1405 91V93H63.1405V91H61.1405ZM0.2125 91H-1.7875V93H0.2125V91ZM0.2125 77.176L-1.45594 76.0731L-1.7875 76.5747V77.176H0.2125ZM40.1485 16.76L41.8169 17.8629L43.868 14.76H40.1485V16.76ZM0.2125 16.76H-1.7875V18.76H0.2125V16.76ZM0.2125 1.656V-0.344002H-1.7875V1.656H0.2125ZM61.1405 1.656H63.1405V-0.344002H61.1405V1.656ZM61.1405 15.48L62.8057 16.5878L63.1405 16.0845V15.48H61.1405ZM20.9485 77.896H61.1405V73.896H20.9485V77.896ZM59.1405 75.896V91H63.1405V75.896H59.1405ZM61.1405 89H0.2125V93H61.1405V89ZM2.2125 91V77.176H-1.7875V91H2.2125ZM1.88094 78.2789L41.8169 17.8629L38.4801 15.6571L-1.45594 76.0731L1.88094 78.2789ZM40.1485 14.76H0.2125V18.76H40.1485V14.76ZM2.2125 16.76V1.656H-1.7875V16.76H2.2125ZM0.2125 3.656H61.1405V-0.344002H0.2125V3.656ZM59.1405 1.656V15.48H63.1405V1.656H59.1405ZM59.4753 14.3722L19.2833 74.7882L22.6137 77.0038L62.8057 16.5878L59.4753 14.3722ZM131.179 73.976L133.069 73.3223L132.603 71.976H131.179V73.976ZM95.5945 73.976V71.976H94.17L93.7044 73.3223L95.5945 73.976ZM89.7065 91V93H91.131L91.5966 91.6537L89.7065 91ZM70.8905 91L69.0082 90.3241L68.0473 93H70.8905V91ZM103.019 1.52799V-0.472008H101.612L101.136 0.852079L103.019 1.52799ZM123.883 1.52799L125.765 0.852079L125.289 -0.472008H123.883V1.52799ZM156.011 91V93H158.854L157.893 90.3241L156.011 91ZM137.067 91L135.176 91.6537L135.642 93H137.067V91ZM126.315 59.64V61.64H129.123L128.205 58.9862L126.315 59.64ZM113.387 22.264L115.277 21.6102L113.387 16.1457L111.496 21.6102L113.387 22.264ZM100.458 59.64L98.5684 58.9862L97.6505 61.64H100.458V59.64ZM131.179 71.976H95.5945V75.976H131.179V71.976ZM93.7044 73.3223L87.8164 90.3463L91.5966 91.6537L97.4846 74.6297L93.7044 73.3223ZM89.7065 89H70.8905V93H89.7065V89ZM72.7728 91.6759L104.901 2.20391L101.136 0.852079L69.0082 90.3241L72.7728 91.6759ZM103.019 3.52799H123.883V-0.472008H103.019V3.52799ZM122 2.20391L154.128 91.6759L157.893 90.3241L125.765 0.852079L122 2.20391ZM156.011 89H137.067V93H156.011V89ZM138.957 90.3463L133.069 73.3223L129.288 74.6297L135.176 91.6537L138.957 90.3463ZM128.205 58.9862L115.277 21.6102L111.496 22.9178L124.424 60.2938L128.205 58.9862ZM111.496 21.6102L98.5684 58.9862L102.349 60.2938L115.277 22.9178L111.496 21.6102ZM100.458 61.64H126.315V57.64H100.458V61.64ZM169.556 22.648L167.82 21.6534L167.816 21.6603L169.556 22.648ZM185.812 6.392L186.792 8.13516L186.799 8.13112L185.812 6.392ZM250.964 29.432V31.432H253.73L252.863 28.8049L250.964 29.432ZM230.356 29.432L228.552 30.2975L229.097 31.432H230.356V29.432ZM221.652 19.832L220.646 21.561L220.655 21.566L220.663 21.5709L221.652 19.832ZM194.9 20.344L195.923 22.0622L195.934 22.0558L194.9 20.344ZM185.428 30.584L183.653 29.6624L183.645 29.6759L183.639 29.6896L185.428 30.584ZM185.428 61.816L183.632 62.6968L183.642 62.7174L183.653 62.7376L185.428 61.816ZM194.9 72.184L193.849 73.8861L193.87 73.8991L193.892 73.9116L194.9 72.184ZM221.652 72.568L222.657 74.297L222.663 74.2935L222.669 74.2899L221.652 72.568ZM230.356 62.84V60.84H229.097L228.552 61.9745L230.356 62.84ZM250.964 62.84L252.864 63.4618L253.722 60.84H250.964V62.84ZM235.22 84.216L236.342 85.8713L236.346 85.8685L235.22 84.216ZM185.812 86.008L184.815 87.7418L184.827 87.7492L184.84 87.7563L185.812 86.008ZM169.556 69.752L167.816 70.7396L167.821 70.7477L167.826 70.7558L169.556 69.752ZM165.668 46.2C165.668 37.7194 167.558 30.2156 171.295 23.6356L167.816 21.6603C163.702 28.9044 161.668 37.1019 161.668 46.2H165.668ZM171.291 23.6426C175.128 16.9485 180.289 11.7928 186.792 8.13515L184.831 4.64885C177.68 8.67117 172.005 14.3528 167.82 21.6534L171.291 23.6426ZM186.799 8.13112C193.388 4.3893 200.766 2.504 208.98 2.504V-1.496C200.126 -1.496 192.059 0.544024 184.824 4.65288L186.799 8.13112ZM208.98 2.504C218.603 2.504 226.948 4.96511 234.093 9.83645L236.346 6.53154C228.472 1.16288 219.324 -1.496 208.98 -1.496V2.504ZM234.093 9.83645C241.221 14.6964 246.208 21.4096 249.064 30.0591L252.863 28.8049C249.745 19.3637 244.237 11.9116 236.346 6.53154L234.093 9.83645ZM250.964 27.432H230.356V31.432H250.964V27.432ZM232.159 28.5665C229.952 23.9694 226.783 20.4471 222.64 18.0931L220.663 21.5709C224.03 23.4836 226.663 26.3613 228.552 30.2975L232.159 28.5665ZM222.657 18.103C218.64 15.7676 214.016 14.632 208.852 14.632V18.632C213.415 18.632 217.324 19.6298 220.646 21.561L222.657 18.103ZM208.852 14.632C203.315 14.632 198.3 15.9526 193.865 18.6322L195.934 22.0558C199.691 19.7861 203.978 18.632 208.852 18.632V14.632ZM193.876 18.6258C189.523 21.2192 186.115 24.9192 183.653 29.6624L187.202 31.5056C189.348 27.3741 192.255 24.2475 195.923 22.0622L193.876 18.6258ZM183.639 29.6896C181.256 34.4557 180.1 39.9788 180.1 46.2H184.1C184.1 40.4745 185.162 35.587 187.216 31.4784L183.639 29.6896ZM180.1 46.2C180.1 52.342 181.258 57.8574 183.632 62.6968L187.223 60.9351C185.16 56.7293 184.1 51.834 184.1 46.2H180.1ZM183.653 62.7376C186.113 67.4755 189.512 71.2099 193.849 73.8861L195.95 70.4819C192.266 68.2088 189.35 65.0312 187.202 60.8944L183.653 62.7376ZM193.892 73.9116C198.323 76.4964 203.328 77.768 208.852 77.768V73.768C203.965 73.768 199.668 72.6502 195.907 70.4564L193.892 73.9116ZM208.852 77.768C214.016 77.768 218.64 76.6324 222.657 74.297L220.646 70.839C217.324 72.7702 213.415 73.768 208.852 73.768V77.768ZM222.669 74.2899C226.794 71.8525 229.954 68.2973 232.159 63.7055L228.552 61.9745C226.661 65.9161 224.019 68.8461 220.634 70.8461L222.669 74.2899ZM230.356 64.84H250.964V60.84H230.356V64.84ZM249.063 62.2182C246.205 70.9549 241.216 77.707 234.093 82.5635L236.346 85.8685C244.242 80.485 249.749 72.9864 252.864 63.4618L249.063 62.2182ZM234.097 82.5607C227.044 87.3438 218.699 89.768 208.98 89.768V93.768C219.398 93.768 228.547 91.1575 236.342 85.8713L234.097 82.5607ZM208.98 89.768C200.758 89.768 193.374 87.9217 186.783 84.2597L184.84 87.7563C192.073 91.7743 200.134 93.768 208.98 93.768V89.768ZM186.808 84.2742C180.291 80.5264 175.123 75.3615 171.285 68.7482L167.826 70.7558C172.01 77.9665 177.679 83.6389 184.815 87.7418L186.808 84.2742ZM171.295 68.7643C167.558 62.1844 165.668 54.6806 165.668 46.2H161.668C161.668 55.2981 163.702 63.4956 167.816 70.7396L171.295 68.7643ZM340.382 1.656H342.382V-0.344002H340.382V1.656ZM340.382 91V93H342.382V91H340.382ZM322.462 91H320.462V93H322.462V91ZM322.462 52.984H324.462V50.984H322.462V52.984ZM284.19 52.984V50.984H282.19V52.984H284.19ZM284.19 91V93H286.19V91H284.19ZM266.27 91H264.27V93H266.27V91ZM266.27 1.656V-0.344002H264.27V1.656H266.27ZM284.19 1.656H286.19V-0.344002H284.19V1.656ZM284.19 38.392H282.19V40.392H284.19V38.392ZM322.462 38.392V40.392H324.462V38.392H322.462ZM322.462 1.656V-0.344002H320.462V1.656H322.462ZM338.382 1.656V91H342.382V1.656H338.382ZM340.382 89H322.462V93H340.382V89ZM324.462 91V52.984H320.462V91H324.462ZM322.462 50.984H284.19V54.984H322.462V50.984ZM282.19 52.984V91H286.19V52.984H282.19ZM284.19 89H266.27V93H284.19V89ZM268.27 91V1.656H264.27V91H268.27ZM266.27 3.656H284.19V-0.344002H266.27V3.656ZM282.19 1.656V38.392H286.19V1.656H282.19ZM284.19 40.392H322.462V36.392H284.19V40.392ZM324.462 38.392V1.656H320.462V38.392H324.462ZM322.462 3.656H340.382V-0.344002H322.462V3.656Z" fill="white"/>
</svg>
