<svg width="345" height="96" viewBox="0 0 345 96" fill="none" xmlns="http://www.w3.org/2000/svg">
<path fill-rule="evenodd" clip-rule="evenodd" d="M210.98 4.504C202.766 4.504 195.388 6.38931 188.799 10.1311L188.792 10.1351C182.29 13.7923 177.129 18.9471 173.292 25.6398C169.557 32.2187 167.668 39.7212 167.668 48.2C167.668 56.6772 169.556 64.1784 173.29 70.7564C177.124 77.3614 182.286 82.5211 188.795 86.2667C195.384 89.924 202.764 91.768 210.98 91.768C220.699 91.768 229.044 89.3438 236.097 84.5607C242.488 80.2018 247.161 74.3164 250.118 66.84H233.583C231.417 70.8863 228.447 74.0572 224.669 76.2898L224.663 76.2935L224.657 76.297C220.64 78.6324 216.016 79.768 210.852 79.768C205.328 79.768 200.323 78.4964 195.892 75.9116L195.87 75.8991L195.849 75.8861C191.512 73.2099 188.113 69.4755 185.653 64.7376L185.642 64.7174L185.632 64.6968C183.258 59.8574 182.1 54.342 182.1 48.2C182.1 41.9788 183.256 36.4557 185.639 31.6896L185.646 31.6759L185.653 31.6624C188.114 26.9212 191.52 23.2223 195.87 20.629C200.304 17.9515 205.317 16.632 210.852 16.632C216.012 16.632 220.633 17.7659 224.648 20.0978C228.439 22.2541 231.415 25.3894 233.583 29.432H250.108C247.152 22.038 242.482 16.1927 236.093 11.8365C228.948 6.96511 220.603 4.504 210.98 4.504ZM186.828 6.65066C194.062 2.54329 202.128 0.503998 210.98 0.503998C221.324 0.503998 230.472 3.16288 238.346 8.53154C246.237 13.9116 251.745 21.3637 254.863 30.8049L255.73 33.432H231.097L230.552 32.2975C228.663 28.3613 226.03 25.4836 222.664 23.5709L222.655 23.566L222.646 23.561C219.325 21.6298 215.415 20.632 210.852 20.632C205.978 20.632 201.691 21.7861 197.934 24.0558L197.923 24.0622C194.259 26.2451 191.354 29.3674 189.209 33.4924C187.16 37.598 186.1 42.481 186.1 48.2C186.1 53.8248 187.156 58.7133 189.213 62.9145C191.356 67.0337 194.261 70.2005 197.929 72.469C201.685 74.6545 205.974 75.768 210.852 75.768C215.412 75.768 219.32 74.7715 222.64 72.8425C226.022 70.8426 228.662 67.9137 230.552 63.9745L231.097 62.84H255.722L254.864 65.4618C251.749 74.9864 246.242 82.485 238.346 87.8685L238.342 87.8713C230.547 93.1575 221.398 95.768 210.98 95.768C202.134 95.768 194.073 93.7743 186.84 89.7563L186.827 89.7492L186.815 89.7418C179.679 85.6389 174.01 79.9665 169.826 72.7558L169.821 72.7477L169.816 72.7396C165.702 65.4956 163.668 57.2981 163.668 48.2C163.668 39.1019 165.702 30.9044 169.816 23.6603L169.82 23.6534C174.004 16.3539 179.679 10.6729 186.828 6.65066ZM103.612 1.52799H127.289L160.854 95H137.642L131.754 77.976H99.019L93.131 95H70.0473L103.612 1.52799ZM106.425 5.52799L75.7337 91H90.282L96.17 73.976H134.603L140.491 91H155.167L124.476 5.52799H106.425ZM0.212524 1.656H65.1405V18.0845L26.6812 75.896H65.1405V95H0.212524V78.5747L38.429 20.76H0.212524V1.656ZM4.21252 5.656V16.76H45.868L4.21252 79.7773V91H61.1405V79.896H19.2159L61.1405 16.8755V5.656H4.21252ZM266.27 1.656H288.19V38.392H322.462V1.656H344.382V95H322.462V56.984H288.19V95H266.27V1.656ZM270.27 5.656V91H284.19V52.984H326.462V91H340.382V5.656H326.462V42.392H284.19V5.656H270.27ZM115.387 18.1457L131.123 63.64H99.6505L115.387 18.1457ZM105.267 59.64H125.506L115.387 30.3823L105.267 59.64Z" fill="white"/>
</svg>
